<svg width="311" height="117" viewBox="0 0 311 117" fill="none" xmlns="http://www.w3.org/2000/svg">
<path d="M299.176 22.0128C296.137 22.0128 293.49 20.9437 291.235 18.8056C289.078 16.6675 288 14.0435 288 10.9335C288 7.82353 289.078 5.24809 291.235 3.20716C293.49 1.06905 296.137 0 299.176 0C302.216 0 304.863 1.06905 307.118 3.20716C309.373 5.24809 310.5 7.82353 310.5 10.9335C310.5 14.0435 309.373 16.6675 307.118 18.8056C304.863 20.9437 302.216 22.0128 299.176 22.0128ZM290.206 115.5V34.1125H308V115.5H290.206Z" fill="#C9644D"/>
<path d="M265.562 34.5H285L255.583 115.5H231.248L202.5 34.5H222.086L243.75 100.719L265.562 34.5Z" fill="#C9644D"/>
<path d="M182.325 57.2571C179.146 57.2571 176.464 56.1591 174.278 53.9633C172.093 51.7674 171 49.0226 171 45.7288C171 42.6346 172.093 39.9896 174.278 37.7938C176.464 35.5979 179.146 34.5 182.325 34.5C185.503 34.5 188.136 35.5979 190.222 37.7938C192.407 39.9896 193.5 42.6346 193.5 45.7288C193.5 49.0226 192.407 51.7674 190.222 53.9633C188.136 56.1591 185.503 57.2571 182.325 57.2571ZM182.325 114C179.146 114 176.464 112.952 174.278 110.856C172.093 108.66 171 105.965 171 102.771C171 99.5772 172.093 96.8823 174.278 94.6864C176.464 92.4906 179.146 91.3927 182.325 91.3927C185.503 91.3927 188.136 92.4906 190.222 94.6864C192.407 96.8823 193.5 99.5772 193.5 102.771C193.5 105.965 192.407 108.66 190.222 110.856C188.136 112.952 185.503 114 182.325 114Z" fill="#C9644D"/>
<path d="M140.92 34.006H159V114.789H140.92V103.143C138.13 107.86 134.444 111.349 129.862 113.609C125.28 115.87 120.299 117 114.92 117H114.77C110.088 117 105.705 116.214 101.621 114.641C97.5364 113.069 93.9502 110.759 90.8621 107.713C87.774 104.568 85.3333 100.735 83.5402 96.2147C81.8467 91.5957 81 86.2397 81 80.1466V68.6483C81 62.5552 81.8467 57.1991 83.5402 52.5802C85.3333 47.9612 87.774 44.0793 90.8621 40.9345C93.9502 37.7897 97.5364 35.431 101.621 33.8586C105.705 32.2862 110.088 31.5 114.77 31.5H114.92C120.299 31.5 125.28 32.581 129.862 34.7431C134.444 36.8069 138.13 40.05 140.92 44.4724V34.006ZM119.701 102.111C122.391 102.111 124.981 101.62 127.471 100.637C130.061 99.556 132.352 97.9836 134.345 95.9198C136.337 93.7578 137.931 91.1043 139.126 87.9595C140.322 84.8147 140.92 81.1293 140.92 76.9034V71.8914C140.92 67.6655 140.322 63.9802 139.126 60.8354C137.931 57.5922 136.337 54.9388 134.345 52.875C132.352 50.7129 130.061 49.1405 127.471 48.1578C124.981 47.0767 122.391 46.5362 119.701 46.5362H119.402C116.613 46.5362 113.973 47.0276 111.483 48.0103C108.992 48.8948 106.801 50.369 104.908 52.4328C103.115 54.3983 101.671 56.9043 100.575 59.9509C99.5786 62.9974 99.0805 66.5845 99.0805 70.7121V78.0828C99.0805 82.2103 99.5786 85.7974 100.575 88.844C101.671 91.7922 103.115 94.2983 104.908 96.3621C106.801 98.3276 108.992 99.8017 111.483 100.784C113.973 101.669 116.613 102.111 119.402 102.111H119.701Z" fill="#C9644D"/>
<path d="M43.8623 31.5C48.1537 31.5 52.1956 32.2434 55.988 33.7301C59.7804 35.1177 63.0739 37.1991 65.8683 39.9743C68.6627 42.7496 70.8583 46.2186 72.4551 50.3814C74.1517 54.5442 75 59.3513 75 64.8027V115.5H57.0359V67.1814C57.0359 60.1443 55.2894 54.9903 51.7964 51.7195C48.3034 48.3496 43.9122 46.6646 38.6228 46.6646H38.4731C35.8782 46.6646 33.3333 47.1602 30.8383 48.1513C28.4431 49.0434 26.2974 50.4805 24.4012 52.4628C22.505 54.4451 20.9581 57.0221 19.7605 60.1938C18.6627 63.2664 18.1138 66.9336 18.1138 71.1956V115.5H0V34.0274H18.1138V44.4345C21.008 39.9743 24.7006 36.7035 29.1916 34.6221C33.7824 32.5407 38.6228 31.5 43.7126 31.5H43.8623Z" fill="#C9644D"/>
</svg>
