<svg width="17" height="16" viewBox="0 0 17 16" fill="none" xmlns="http://www.w3.org/2000/svg">
<rect x="0.125" width="16" height="16" rx="2" fill="#FFF6E4"/>
<path d="M8.9733 2C9.54549 2 10.0844 2.10619 10.5901 2.31858C11.0957 2.51681 11.5348 2.81416 11.9074 3.21062C12.28 3.60708 12.5728 4.10265 12.7857 4.69735C13.0119 5.29204 13.125 5.97876 13.125 6.75752V14H10.7298V7.09735C10.7298 6.09204 10.4969 5.35575 10.0312 4.8885C9.56545 4.40708 8.97996 4.16637 8.2747 4.16637H8.25474C7.90877 4.16637 7.56944 4.23717 7.23678 4.37876C6.91742 4.50619 6.63132 4.7115 6.37849 4.99469C6.12567 5.27788 5.91941 5.64602 5.75973 6.09911C5.61336 6.53805 5.54017 7.06195 5.54017 7.6708V14H3.125V2.36106H5.54017V3.84779C5.92606 3.21062 6.41841 2.74336 7.01722 2.44602C7.62932 2.14867 8.2747 2 8.95334 2H8.9733Z" fill="#C9644D"/>
</svg>
