<svg width="321" height="486" viewBox="0 0 321 486" fill="none" xmlns="http://www.w3.org/2000/svg">
<path d="M215 485H200.5H120H21H6.5M215 485V480M215 485H299.268M215 480H296M215 480L214.5 476.25L214 472.5M296 480V484L299.268 485M296 480L294.524 479M299.268 485H320V1H3.5H1V469.5M280.5 469.5L287.5 474.242M280.5 469.5H253M280.5 469.5V462.459M214 469.5V472.5M214 469.5H225.5M214 469.5H209M214 469.5V447M214 472.5L209 469.5M214 472.5H6.5M214 390.5H225.5M214 390.5V406M214 390.5H201.5M287.5 390.5H280.5M287.5 390.5V406M287.5 390.5H308.351M287.5 474.242L294.524 479M287.5 474.242V466.5M280.5 390.5H253M280.5 390.5V406M225.5 390.5V469.5M225.5 390.5H253M225.5 469.5H253M253 469.5V390.5M201.5 469.5H209M201.5 469.5H1M201.5 469.5V447M294.524 479H307.5L307.62 466.5M6.5 472.5L1 469.5M6.5 472.5V475M1 469.5V472M6.5 485H1V472M6.5 485V475M1 472L6.5 475M94.5 441V445H36V441M94.5 441H36M94.5 441L92 439.5M36 441L39 439.5M39 439.5H92M39 439.5V395.5M92 439.5V395.5M39 395.5H36V389H94.5V395.5H92M39 395.5H42M92 395.5H90M65.5 438V395.5M65.5 395.5H90M65.5 395.5H42M90 395.5L89.5 438H42V395.5M201.5 447H214M201.5 447V427M214 447V427M201.5 427H214M201.5 427V406M214 427V406M201.5 406H214M201.5 406V390.5M201.5 390.5V375H308.5L308.351 390.5M287.5 406H308.202M287.5 406V427M287.5 406H280.5M308.202 406L308.351 390.5M308.202 406L308 427M287.5 427H308M287.5 427V447M287.5 427H280.5M308 427L307.808 447M287.5 447H307.808M287.5 447V466.5M287.5 447L280.5 445.124M307.808 447L307.62 466.5M287.5 466.5H307.62M287.5 466.5L280.5 462.459M280.5 462.459V445.124M280.5 445.124V427M280.5 427V406M93.5 348V352H35V348M93.5 348H35M93.5 348L91 346.5M35 348L38 346.5M38 346.5H91M38 346.5V302.5M91 346.5V302.5M38 302.5H35V296H93.5V302.5H91M38 302.5H41M91 302.5H89M64.5 345V302.5M64.5 302.5H89M64.5 302.5H41M89 302.5L88.5 345H41V302.5M93.5 268V272H35V268M93.5 268H35M93.5 268L91 266.5M35 268L38 266.5M38 266.5H91M38 266.5V222.5M91 266.5V222.5M38 222.5H35V216H93.5V222.5H91M38 222.5H41M91 222.5H89M64.5 265V222.5M64.5 222.5H89M64.5 222.5H41M89 222.5L88.5 265H41V222.5M93.5 188V192H35V188M93.5 188H35M93.5 188L91 186.5M35 188L38 186.5M38 186.5H91M38 186.5V142.5M91 186.5V142.5M38 142.5H35V136H93.5V142.5H91M38 142.5H41M91 142.5H89M64.5 185V142.5M64.5 142.5H89M64.5 142.5H41M89 142.5L88.5 185H41V142.5M93.5 108V112H35V108M93.5 108H35M93.5 108L91 106.5M35 108L38 106.5M38 106.5H91M38 106.5V62.5M91 106.5V62.5M38 62.5H35V56H93.5V62.5H91M38 62.5H41M91 62.5H89M64.5 105V62.5M64.5 62.5H89M64.5 62.5H41M89 62.5L88.5 105H41V62.5M286.5 348V352H228V348M286.5 348H228M286.5 348L284 346.5M228 348L231 346.5M231 346.5H284M231 346.5V302.5M284 346.5V302.5M231 302.5H228V296H286.5V302.5H284M231 302.5H234M284 302.5H282M257.5 345V302.5M257.5 302.5H282M257.5 302.5H234M282 302.5L281.5 345H234V302.5M286.5 268V272H228V268M286.5 268H228M286.5 268L284 266.5M228 268L231 266.5M231 266.5H284M231 266.5V222.5M284 266.5V222.5M231 222.5H228V216H286.5V222.5H284M231 222.5H234M284 222.5H282M257.5 265V222.5M257.5 222.5H282M257.5 222.5H234M282 222.5L281.5 265H234V222.5M286.5 188V192H228V188M286.5 188H228M286.5 188L284 186.5M228 188L231 186.5M231 186.5H284M231 186.5V142.5M284 186.5V142.5M231 142.5H228V136H286.5V142.5H284M231 142.5H234M284 142.5H282M257.5 185V142.5M257.5 142.5H282M257.5 142.5H234M282 142.5L281.5 185H234V142.5M286.5 108V112H228V108M286.5 108H228M286.5 108L284 106.5M228 108L231 106.5M231 106.5H284M231 106.5V62.5M284 106.5V62.5M231 62.5H228V56H286.5V62.5H284M231 62.5H234M284 62.5H282M257.5 105V62.5M257.5 62.5H282M257.5 62.5H234M282 62.5L281.5 105H234V62.5M189.5 348V352H131V348M189.5 348H131M189.5 348L187 346.5M131 348L134 346.5M134 346.5H187M134 346.5V302.5M187 346.5V302.5M134 302.5H131V296H189.5V302.5H187M134 302.5H137M187 302.5H185M160.5 345V302.5M160.5 302.5H185M160.5 302.5H137M185 302.5L184.5 345H137V302.5M189.5 268V272H131V268M189.5 268H131M189.5 268L187 266.5M131 268L134 266.5M134 266.5H187M134 266.5V222.5M187 266.5V222.5M134 222.5H131V216H189.5V222.5H187M134 222.5H137M187 222.5H185M160.5 265V222.5M160.5 222.5H185M160.5 222.5H137M185 222.5L184.5 265H137V222.5M189.5 188V192H131V188M189.5 188H131M189.5 188L187 186.5M131 188L134 186.5M134 186.5H187M134 186.5V142.5M187 186.5V142.5M134 142.5H131V136H189.5V142.5H187M134 142.5H137M187 142.5H185M160.5 185V142.5M160.5 142.5H185M160.5 142.5H137M185 142.5L184.5 185H137V142.5M189.5 108V112H131V108M189.5 108H131M189.5 108L187 106.5M131 108L134 106.5M134 106.5H187M134 106.5V62.5M187 106.5V62.5M134 62.5H131V56H189.5V62.5H187M134 62.5H137M187 62.5H185M160.5 105V62.5M160.5 62.5H185M160.5 62.5H137M185 62.5L184.5 105H137V62.5M189.5 440V444H131V440M189.5 440H131M189.5 440L187 438.5M131 440L134 438.5M134 438.5H187M134 438.5V394.5M187 438.5V394.5M134 394.5H131V388H189.5V394.5H187M134 394.5H137M187 394.5H185M160.5 437V394.5M160.5 394.5H185M160.5 394.5H137M185 394.5L184.5 437H137V394.5M44 399V436H62.5V399H44ZM68 399V436H86.5V399H68ZM256 393V466.5H278V393H256ZM228 393V466.5H250V393H228ZM43 306V343H61.5V306H43ZM67 306V343H85.5V306H67ZM43 226V263H61.5V226H43ZM67 226V263H85.5V226H67ZM43 146V183H61.5V146H43ZM67 146V183H85.5V146H67ZM43 66V103H61.5V66H43ZM67 66V103H85.5V66H67ZM236 306V343H254.5V306H236ZM260 306V343H278.5V306H260ZM236 226V263H254.5V226H236ZM260 226V263H278.5V226H260ZM236 146V183H254.5V146H236ZM260 146V183H278.5V146H260ZM236 66V103H254.5V66H236ZM260 66V103H278.5V66H260ZM139 306V343H157.5V306H139ZM163 306V343H181.5V306H163ZM139 226V263H157.5V226H139ZM163 226V263H181.5V226H163ZM139 146V183H157.5V146H139ZM163 146V183H181.5V146H163ZM139 66V103H157.5V66H139ZM163 66V103H181.5V66H163ZM139 398V435H157.5V398H139ZM163 398V435H181.5V398H163ZM199.394 17.2384C198.602 17.2384 197.912 16.9597 197.324 16.4023C196.762 15.8449 196.48 15.1609 196.48 14.3502C196.48 13.5395 196.762 12.8681 197.324 12.3361C197.912 11.7787 198.602 11.5 199.394 11.5C200.186 11.5 200.876 11.7787 201.464 12.3361C202.052 12.8681 202.346 13.5395 202.346 14.3502C202.346 15.1609 202.052 15.8449 201.464 16.4023C200.876 16.9597 200.186 17.2384 199.394 17.2384ZM197.056 41.609V20.3926H201.694V41.609H197.056ZM190.632 20.4937H195.699L188.03 41.609H181.687L174.192 20.4937H179.298L184.946 37.7559L190.632 20.4937ZM168.933 26.4261C168.104 26.4261 167.405 26.1398 166.835 25.5674C166.265 24.995 165.98 24.2794 165.98 23.4208C165.98 22.6142 166.265 21.9247 166.835 21.3523C167.405 20.7799 168.104 20.4937 168.933 20.4937C169.761 20.4937 170.447 20.7799 170.991 21.3523C171.561 21.9247 171.846 22.6142 171.846 23.4208C171.846 24.2794 171.561 24.995 170.991 25.5674C170.447 26.1398 169.761 26.4261 168.933 26.4261ZM168.933 41.218C168.104 41.218 167.405 40.9448 166.835 40.3984C166.265 39.826 165.98 39.1234 165.98 38.2908C165.98 37.4582 166.265 36.7557 166.835 36.1833C167.405 35.6109 168.104 35.3246 168.933 35.3246C169.761 35.3246 170.447 35.6109 170.991 36.1833C171.561 36.7557 171.846 37.4582 171.846 38.2908C171.846 39.1234 171.561 39.826 170.991 40.3984C170.447 40.9448 169.761 41.218 168.933 41.218ZM158.14 20.3647H162.853V41.4235H158.14V38.3876C157.412 39.6173 156.452 40.5268 155.257 41.116C154.063 41.7053 152.764 41.9999 151.362 41.9999H151.323C150.102 41.9999 148.96 41.7949 147.895 41.385C146.83 40.9751 145.895 40.3731 145.09 39.5789C144.285 38.7591 143.649 37.76 143.182 36.5815C142.74 35.3774 142.52 33.9812 142.52 32.3928V29.3954C142.52 27.807 142.74 26.4108 143.182 25.2067C143.649 24.0026 144.285 22.9906 145.09 22.1708C145.895 21.351 146.83 20.7362 147.895 20.3263C148.96 19.9164 150.102 19.7114 151.323 19.7114H151.362C152.764 19.7114 154.063 19.9932 155.257 20.5569C156.452 21.0949 157.412 21.9403 158.14 23.0931V20.3647ZM152.608 38.1186C153.309 38.1186 153.985 37.9905 154.634 37.7343C155.309 37.4525 155.906 37.0426 156.426 36.5046C156.945 35.941 157.361 35.2493 157.672 34.4295C157.984 33.6097 158.14 32.649 158.14 31.5474V30.2408C158.14 29.1392 157.984 28.1785 157.672 27.3587C157.361 26.5132 156.945 25.8215 156.426 25.2835C155.906 24.7199 155.309 24.31 154.634 24.0538C153.985 23.772 153.309 23.6311 152.608 23.6311H152.53C151.803 23.6311 151.115 23.7592 150.466 24.0154C149.817 24.246 149.245 24.6302 148.752 25.1682C148.285 25.6806 147.908 26.3339 147.622 27.1281C147.363 27.9223 147.233 28.8574 147.233 29.9334V31.8548C147.233 32.9308 147.363 33.8659 147.622 34.6601C147.908 35.4286 148.285 36.0819 148.752 36.6199C149.245 37.1323 149.817 37.5166 150.466 37.7728C151.115 38.0033 151.803 38.1186 152.53 38.1186H152.608ZM132.838 19.7114C133.957 19.7114 135.011 19.9052 135.999 20.2928C136.988 20.6545 137.847 21.1971 138.575 21.9206C139.304 22.644 139.876 23.5483 140.292 24.6335C140.734 25.7187 140.956 26.9718 140.956 28.3929V41.6089H136.273V29.013C136.273 27.1785 135.817 25.8349 134.907 24.9823C133.996 24.1038 132.851 23.6646 131.473 23.6646H131.434C130.757 23.6646 130.094 23.7938 129.443 24.0522C128.819 24.2847 128.26 24.6593 127.765 25.1761C127.271 25.6928 126.868 26.3646 126.556 27.1914C126.269 27.9924 126.126 28.9484 126.126 30.0594V41.6089H121.404V20.3703H126.126V23.0833C126.881 21.9206 127.843 21.0679 129.014 20.5253C130.211 19.9827 131.473 19.7114 132.799 19.7114H132.838Z" stroke="#C9644D" stroke-width="1.5"/>
</svg>
