<svg width="321" height="486" viewBox="0 0 321 486" fill="none" xmlns="http://www.w3.org/2000/svg">
<path d="M200.5 485H320V1H3.5H1V485H120M200.5 485V406M200.5 485L196.5 480.5H122.5L120 485M200.5 485H120M120 485V406M25 481.5V412H94V481.5M25 481.5L31.5 477.5M25 481.5H94M31.5 477.5V417.5H36M31.5 477.5H36M87.5 477.5L94 481.5M87.5 477.5V417.5H68M87.5 477.5H68M68 417.5V477.5M68 417.5H65M68 477.5H65M65 477.5V417.5M65 477.5H38.5M65 417.5H38.5M36 417.5V477.5M36 417.5H38.5M36 477.5H38.5M38.5 477.5V417.5M120 406V391C123.12 384.645 126.864 374.62 143 367M120 406H143M200.5 406V391C198.837 384.466 192.94 373.276 181 367.386M200.5 406H181M181 406V367.386M181 406H161.108M181 367.386C176.188 365.013 170.394 363.5 163.5 363.5C163.165 363.5 161.332 363.493 161 363.5M161.108 406L161 363.5M161.108 406H143M161 363.5C154.048 363.648 148.368 364.465 143 367M143 406V367M139.5 417.5H125V476.5H139.5M139.5 417.5V476.5M139.5 417.5H161.5M139.5 476.5H161.5M183.5 417.5H196.5V476.5H183.5M183.5 417.5V476.5M183.5 417.5H161.5M183.5 476.5H161.5M161.5 476.5V417.5M89 390V336.5H31.5V390M89 390H91.5M89 390H87M31.5 390H28M31.5 390H35M24 366V331H95.5V390H91.5M24 366V390H28M24 366H28M91.5 390V366H87M28 366V390M28 366H36M36 366V390M36 366H39.5M36 390H39.5M36 390H35M39.5 366V390M39.5 366H43M39.5 390H43M43 366V390M43 366H46M43 390H46M46 366V390M46 366H49.5M46 390H49.5M49.5 366V390M49.5 366H53M49.5 390H53M53 366V390M53 366H56.5M53 390H56.5M56.5 390V366M56.5 390H60M56.5 366H60M60 390V366M60 390H63M60 366H63M63 366V390M63 366H66.5M63 390H66.5M66.5 390V366M66.5 390H70M66.5 366H70M70 366V390M70 366H73M70 390H73M70 390V339.5M73 390V366M73 390H75.5M73 366H75.5M75.5 366V390M75.5 366H77.5M75.5 390H77.5M77.5 390V366M77.5 390H81M77.5 366H81M81 366V390M81 366H83M81 390H83M85 390V366M85 390H83M85 390H87M85 366H83M85 366H87M83 366V390M87 390V366M87 390V339.5H70M35 390V339.5H70M200.5 316V256.5H120V316M200.5 316H120M200.5 316L198 313.5H122.5L120 316M137.5 261H125V290M137.5 261V312M137.5 261H183.5M137.5 312H132.5M137.5 312H141.5M183.5 261H196.5V290M183.5 261V312M183.5 312H178.5M183.5 312H186.5M125 290V312H128.5M125 290H128.5M196.5 290V312H193.25M196.5 290H193.25M128.5 290V312M128.5 290H132.5M128.5 312H132.5M132.5 290V312M132.5 290H141.5M141.5 290V312M141.5 290H146.5M141.5 312H146.5M146.5 290V312M146.5 290H149.5M146.5 312H149.5M149.5 290V312M149.5 290H153.5M149.5 312H153.5M153.5 290V312M153.5 290H157M153.5 312H157M157 290V312M157 290H160.5M157 312H160.5M160.5 290V312M160.5 290H164M160.5 312H164M164 290V312M164 290H168M164 312H168M168 290V312M168 290H171M168 312H171M171 290V312M171 290H175M171 312H175M175 290V312M175 290H178.5M175 312H178.5M178.5 290V312M178.5 290H186.5M186.5 290V312M186.5 290H190M186.5 312H190M190 290V312M190 290H193.25M190 312H193.25M193.25 290V312M200.5 239V179.5H120V239M200.5 239H120M200.5 239L198 236.5H122.5L120 239M137.5 184H125V213M137.5 184V213M137.5 184H183.5M137.5 213V235M137.5 213H132.5M137.5 213H141.5M137.5 235H132.5M137.5 235H141.5M183.5 184H196.5V213M183.5 184V213M183.5 213V235M183.5 213H178.5M183.5 213H186.5M183.5 235H178.5M183.5 235H186.5M125 213V235H128.5M125 213H128.5M196.5 213V235H193.25M196.5 213H193.25M128.5 213V235M128.5 213H132.5M128.5 235H132.5M132.5 213V235M141.5 213V235M141.5 213H146.5M141.5 235H146.5M146.5 213V235M146.5 213H149.5M146.5 235H149.5M149.5 213V235M149.5 213H153.5M149.5 235H153.5M153.5 213V235M153.5 213H157M153.5 235H157M157 213V235M157 213H160.5M157 235H160.5M160.5 213V235M160.5 213H164M160.5 235H164M164 213V235M164 213H168M164 235H168M168 213V235M168 213H171M168 235H171M171 213V235M171 213H175M171 235H175M175 213V235M175 213H178.5M175 235H178.5M178.5 213V235M186.5 213V235M186.5 213H190M186.5 235H190M190 213V235M190 213H193.25M190 235H193.25M193.25 213V235M200.5 164V104.5H120V164M200.5 164H120M200.5 164L198 161.5H122.5L120 164M137.5 109H125V138M137.5 109V138M137.5 109H183.5M137.5 138V160M137.5 138H132.5M137.5 138H141.5M137.5 160H132.5M137.5 160H141.5M183.5 109H196.5V138M183.5 109V138M183.5 138V160M183.5 138H178.5M183.5 138H186.5M183.5 160H178.5M183.5 160H186.5M125 138V160H128.5M125 138H128.5M196.5 138V160H193.25M196.5 138H193.25M128.5 138V160M128.5 138H132.5M128.5 160H132.5M132.5 138V160M141.5 138V160M141.5 138H146.5M141.5 160H146.5M146.5 138V160M146.5 138H149.5M146.5 160H149.5M149.5 138V160M149.5 138H153.5M149.5 160H153.5M153.5 138V160M153.5 138H157M153.5 160H157M157 138V160M157 138H160.5M157 160H160.5M160.5 138V160M160.5 138H164M160.5 160H164M164 138V160M164 138H168M164 160H168M168 138V160M168 138H171M168 160H171M171 138V160M171 138H175M171 160H175M175 138V160M175 138H178.5M175 160H178.5M178.5 138V160M186.5 138V160M186.5 138H190M186.5 160H190M190 138V160M190 138H193.25M190 160H193.25M193.25 138V160M200.5 85.5V26H120V85.5M200.5 85.5H120M200.5 85.5L198 83H122.5L120 85.5M137.5 30.5H125V59.5M137.5 30.5V59.5M137.5 30.5H183.5M137.5 59.5V81.5M137.5 59.5H132.5M137.5 59.5H141.5M137.5 81.5H132.5M137.5 81.5H141.5M183.5 30.5H196.5V59.5M183.5 30.5V59.5M183.5 59.5V81.5M183.5 59.5H178.5M183.5 59.5H186.5M183.5 81.5H178.5M183.5 81.5H186.5M125 59.5V81.5H128.5M125 59.5H128.5M196.5 59.5V81.5H193.25M196.5 59.5H193.25M128.5 59.5V81.5M128.5 59.5H132.5M128.5 81.5H132.5M132.5 59.5V81.5M141.5 59.5V81.5M141.5 59.5H146.5M141.5 81.5H146.5M146.5 59.5V81.5M146.5 59.5H149.5M146.5 81.5H149.5M149.5 59.5V81.5M149.5 59.5H153.5M149.5 81.5H153.5M153.5 59.5V81.5M153.5 59.5H157M153.5 81.5H157M157 59.5V81.5M157 59.5H160.5M157 81.5H160.5M160.5 59.5V81.5M160.5 59.5H164M160.5 81.5H164M164 59.5V81.5M164 59.5H168M164 81.5H168M168 59.5V81.5M168 59.5H171M168 81.5H171M171 59.5V81.5M171 59.5H175M171 81.5H175M175 59.5V81.5M175 59.5H178.5M175 81.5H178.5M178.5 59.5V81.5M186.5 59.5V81.5M186.5 59.5H190M186.5 81.5H190M190 59.5V81.5M190 59.5H193.25M190 81.5H193.25M193.25 59.5V81.5M89 292V262.5H31.5V292M89 292V316M89 292H87M89 292H91.5V316M89 316H91.5M89 316H87M31.5 292V316M31.5 292H28M31.5 292H35M31.5 316H28M31.5 316H35M24 292V257H95.5V316H91.5M24 292V316H28M24 292H28M28 292V316M35 292H36M35 292V265.5H70M35 292V316M36 292V316M36 292H39.5M36 316H39.5M36 316H35M39.5 292V316M39.5 292H43M39.5 316H43M43 292V316M43 292H46M43 316H46M46 292V316M46 292H49.5M46 316H49.5M49.5 292V316M49.5 292H53M49.5 316H53M53 292V316M53 292H56.5M53 316H56.5M56.5 316V292M56.5 316H60M56.5 292H60M60 316V292M60 316H63M60 292H63M63 292V316M63 292H66.5M63 316H66.5M66.5 316V292M66.5 316H70M66.5 292H70M70 292V316M70 292H73M70 292V265.5M70 316H73M73 316V292M73 316H75.5M73 292H75.5M75.5 292V316M75.5 292H77.5M75.5 316H77.5M77.5 316V292M77.5 316H81M77.5 292H81M81 292V316M81 292H83M81 316H83M85 316V292M85 316H83M85 316H87M85 292H83M85 292H87M83 292V316M87 316V292M87 292V265.5H70M89 215V185.5H31.5V215M89 215V239M89 215H87M89 215H91.5V239M89 239H91.5M89 239H87M31.5 215V239M31.5 215H28M31.5 215H35M31.5 239H28M31.5 239H35M24 215V180H95.5V239H91.5M24 215V239H28M24 215H28M28 215V239M35 215H36M35 215V188.5H70M35 215V239M36 215V239M36 215H39.5M36 239H39.5M36 239H35M39.5 215V239M39.5 215H43M39.5 239H43M43 215V239M43 215H46M43 239H46M46 215V239M46 215H49.5M46 239H49.5M49.5 215V239M49.5 215H53M49.5 239H53M53 215V239M53 215H56.5M53 239H56.5M56.5 239V215M56.5 239H60M56.5 215H60M60 239V215M60 239H63M60 215H63M63 215V239M63 215H66.5M63 239H66.5M66.5 239V215M66.5 239H70M66.5 215H70M70 215V239M70 215H73M70 215V188.5M70 239H73M73 239V215M73 239H75.5M73 215H75.5M75.5 215V239M75.5 215H77.5M75.5 239H77.5M77.5 239V215M77.5 239H81M77.5 215H81M81 215V239M81 215H83M81 239H83M85 239V215M85 239H83M85 239H87M85 215H83M85 215H87M83 215V239M87 239V215M87 215V188.5H70M89 140V110.5H31.5V140M89 140V164M89 140H87M89 140H91.5V164M89 164H91.5M89 164H87M31.5 140V164M31.5 140H28M31.5 140H35M31.5 164H28M31.5 164H35M24 140V105H95.5V164H91.5M24 140V164H28M24 140H28M28 140V164M35 140H36M35 140V113.5H70M35 140V164M36 140V164M36 140H39.5M36 164H39.5M36 164H35M39.5 140V164M39.5 140H43M39.5 164H43M43 140V164M43 140H46M43 164H46M46 140V164M46 140H49.5M46 164H49.5M49.5 140V164M49.5 140H53M49.5 164H53M53 140V164M53 140H56.5M53 164H56.5M56.5 164V140M56.5 164H60M56.5 140H60M60 164V140M60 164H63M60 140H63M63 140V164M63 140H66.5M63 164H66.5M66.5 164V140M66.5 164H70M66.5 140H70M70 140V164M70 140H73M70 140V113.5M70 164H73M73 164V140M73 164H75.5M73 140H75.5M75.5 140V164M75.5 140H77.5M75.5 164H77.5M77.5 164V140M77.5 164H81M77.5 140H81M81 140V164M81 140H83M81 164H83M85 164V140M85 164H83M85 164H87M85 140H83M85 140H87M83 140V164M87 164V140M87 140V113.5H70M89 61V31.5H31.5V61M89 61V85M89 61H87M89 61H91.5V85M89 85H91.5M89 85H87M31.5 61V85M31.5 61H28M31.5 61H35M31.5 85H28M31.5 85H35M24 61V26H95.5V85H91.5M24 61V85H28M24 61H28M28 61V85M35 61H36M35 61V34.5H70M35 61V85M36 61V85M36 61H39.5M36 85H39.5M36 85H35M39.5 61V85M39.5 61H43M39.5 85H43M43 61V85M43 61H46M43 85H46M46 61V85M46 61H49.5M46 85H49.5M49.5 61V85M49.5 61H53M49.5 85H53M53 61V85M53 61H56.5M53 85H56.5M56.5 85V61M56.5 85H60M56.5 61H60M60 85V61M60 85H63M60 61H63M63 61V85M63 61H66.5M63 85H66.5M66.5 85V61M66.5 85H70M66.5 61H70M70 61V85M70 61H73M70 61V34.5M70 85H73M73 85V61M73 85H75.5M73 61H75.5M75.5 61V85M75.5 61H77.5M75.5 85H77.5M77.5 85V61M77.5 85H81M77.5 61H81M81 61V85M81 61H83M81 85H83M85 85V61M85 85H83M85 85H87M85 61H83M85 61H87M83 61V85M87 85V61M87 61V34.5H70M289 61V31.5H231.5V61M289 61V85M289 61H287M289 61H291.5V85M289 85H291.5M289 85H287M231.5 61V85M231.5 61H228M231.5 61H235M231.5 85H228M231.5 85H235M224 61V26H295.5V85H291.5M224 61V85H228M224 61H228M228 61V85M235 61H236M235 61V34.5H270M235 61V85M236 61V85M236 61H239.5M236 85H239.5M236 85H235M239.5 61V85M239.5 61H243M239.5 85H243M243 61V85M243 61H246M243 85H246M246 61V85M246 61H249.5M246 85H249.5M249.5 61V85M249.5 61H253M249.5 85H253M253 61V85M253 61H256.5M253 85H256.5M256.5 85V61M256.5 85H260M256.5 61H260M260 85V61M260 85H263M260 61H263M263 61V85M263 61H266.5M263 85H266.5M266.5 85V61M266.5 85H270M266.5 61H270M270 61V85M270 61H273M270 61V34.5M270 85H273M273 85V61M273 85H275.5M273 61H275.5M275.5 61V85M275.5 61H277.5M275.5 85H277.5M277.5 85V61M277.5 85H281M277.5 61H281M281 61V85M281 61H283M281 85H283M285 85V61M285 85H283M285 85H287M285 61H283M285 61H287M283 61V85M287 85V61M287 61V34.5H270M289 140V110.5H231.5V140M289 140V164M289 140H287M289 140H291.5V164M289 164H291.5M289 164H287M231.5 140V164M231.5 140H228M231.5 140H235M231.5 164H228M231.5 164H235M224 140V105H295.5V164H291.5M224 140V164H228M224 140H228M228 140V164M235 140H236M235 140V113.5H270M235 140V164M236 140V164M236 140H239.5M236 164H239.5M236 164H235M239.5 140V164M239.5 140H243M239.5 164H243M243 140V164M243 140H246M243 164H246M246 140V164M246 140H249.5M246 164H249.5M249.5 140V164M249.5 140H253M249.5 164H253M253 140V164M253 140H256.5M253 164H256.5M256.5 164V140M256.5 164H260M256.5 140H260M260 164V140M260 164H263M260 140H263M263 140V164M263 140H266.5M263 164H266.5M266.5 164V140M266.5 164H270M266.5 140H270M270 140V164M270 140H273M270 140V113.5M270 164H273M273 164V140M273 164H275.5M273 140H275.5M275.5 140V164M275.5 140H277.5M275.5 164H277.5M277.5 164V140M277.5 164H281M277.5 140H281M281 140V164M281 140H283M281 164H283M285 164V140M285 164H283M285 164H287M285 140H283M285 140H287M283 140V164M287 164V140M287 140V113.5H270M289 213V183.5H231.5V213M289 213V237M289 213H287M289 213H291.5V237M289 237H291.5M289 237H287M231.5 213V237M231.5 213H228M231.5 213H235M231.5 237H228M231.5 237H235M224 213V178H295.5V237H291.5M224 213V237H228M224 213H228M228 213V237M235 213H236M235 213V186.5H270M235 213V237M236 213V237M236 213H239.5M236 237H239.5M236 237H235M239.5 213V237M239.5 213H243M239.5 237H243M243 213V237M243 213H246M243 237H246M246 213V237M246 213H249.5M246 237H249.5M249.5 213V237M249.5 213H253M249.5 237H253M253 213V237M253 213H256.5M253 237H256.5M256.5 237V213M256.5 237H260M256.5 213H260M260 237V213M260 237H263M260 213H263M263 213V237M263 213H266.5M263 237H266.5M266.5 237V213M266.5 237H270M266.5 213H270M270 213V237M270 213H273M270 213V186.5M270 237H273M273 237V213M273 237H275.5M273 213H275.5M275.5 213V237M275.5 213H277.5M275.5 237H277.5M277.5 237V213M277.5 237H281M277.5 213H281M281 213V237M281 213H283M281 237H283M285 237V213M285 237H283M285 237H287M285 213H283M285 213H287M283 213V237M287 237V213M287 213V186.5H270M289 292V262.5H231.5V292M289 292V316M289 292H287M289 292H291.5V316M289 316H291.5M289 316H287M231.5 292V316M231.5 292H228M231.5 292H235M231.5 316H228M231.5 316H235M224 292V257H295.5V316H291.5M224 292V316H228M224 292H228M228 292V316M235 292H236M235 292V265.5H270M235 292V316M236 292V316M236 292H239.5M236 316H239.5M236 316H235M239.5 292V316M239.5 292H243M239.5 316H243M243 292V316M243 292H246M243 316H246M246 292V316M246 292H249.5M246 316H249.5M249.5 292V316M249.5 292H253M249.5 316H253M253 292V316M253 292H256.5M253 316H256.5M256.5 316V292M256.5 316H260M256.5 292H260M260 316V292M260 316H263M260 292H263M263 292V316M263 292H266.5M263 316H266.5M266.5 316V292M266.5 316H270M266.5 292H270M270 292V316M270 292H273M270 292V265.5M270 316H273M273 316V292M273 316H275.5M273 292H275.5M275.5 292V316M275.5 292H277.5M275.5 316H277.5M277.5 316V292M277.5 316H281M277.5 292H281M281 292V316M281 292H283M281 316H283M285 316V292M285 316H283M285 316H287M285 292H283M285 292H287M283 292V316M287 316V292M287 292V265.5H270M289 366V336.5H231.5V366M289 366V390M289 366H287M289 366H291.5V390M289 390H291.5M289 390H287M231.5 366V390M231.5 366H228M231.5 366H235M231.5 390H228M231.5 390H235M224 366V331H295.5V390H291.5M224 366V390H228M224 366H228M228 366V390M235 366H236M235 366V339.5H270M235 366V390M236 366V390M236 366H239.5M236 390H239.5M236 390H235M239.5 366V390M239.5 366H243M239.5 390H243M243 366V390M243 366H246M243 390H246M246 366V390M246 366H249.5M246 390H249.5M249.5 366V390M249.5 366H253M249.5 390H253M253 366V390M253 366H256.5M253 390H256.5M256.5 390V366M256.5 390H260M256.5 366H260M260 390V366M260 390H263M260 366H263M263 366V390M263 366H266.5M263 390H266.5M266.5 390V366M266.5 390H270M266.5 366H270M270 366V390M270 366H273M270 366V339.5M270 390H273M273 390V366M273 390H275.5M273 366H275.5M275.5 366V390M275.5 366H277.5M275.5 390H277.5M277.5 390V366M277.5 390H281M277.5 366H281M281 366V390M281 366H283M281 390H283M285 390V366M285 390H283M285 390H287M285 366H283M285 366H287M283 366V390M287 390V366M287 366V339.5H270M224 481.5V412H293V481.5M224 481.5L230.5 477.5M224 481.5H293M230.5 477.5V417.5H235M230.5 477.5H235M286.5 477.5L293 481.5M286.5 477.5V417.5H267M286.5 477.5H267M267 417.5V477.5M267 417.5H264M267 477.5H264M264 477.5V417.5M264 477.5H237.5M264 417.5H237.5M235 417.5V477.5M235 417.5H237.5M235 477.5H237.5M237.5 477.5V417.5M143 421.5V473H158.5V421.5H143ZM164.5 421.5H179.5V473H164.5V421.5ZM197.394 333.238C196.602 333.238 195.912 332.96 195.324 332.402C194.762 331.845 194.48 331.161 194.48 330.35C194.48 329.539 194.762 328.868 195.324 328.336C195.912 327.779 196.602 327.5 197.394 327.5C198.186 327.5 198.876 327.779 199.464 328.336C200.052 328.868 200.346 329.539 200.346 330.35C200.346 331.161 200.052 331.845 199.464 332.402C198.876 332.96 198.186 333.238 197.394 333.238ZM195.056 357.609V336.393H199.694V357.609H195.056ZM188.632 336.494H193.699L186.03 357.609H179.687L172.192 336.494H177.298L182.946 353.756L188.632 336.494ZM166.933 342.426C166.104 342.426 165.405 342.14 164.835 341.567C164.265 340.995 163.98 340.279 163.98 339.421C163.98 338.614 164.265 337.925 164.835 337.352C165.405 336.78 166.104 336.494 166.933 336.494C167.761 336.494 168.447 336.78 168.991 337.352C169.561 337.925 169.846 338.614 169.846 339.421C169.846 340.279 169.561 340.995 168.991 341.567C168.447 342.14 167.761 342.426 166.933 342.426ZM166.933 357.218C166.104 357.218 165.405 356.945 164.835 356.398C164.265 355.826 163.98 355.123 163.98 354.291C163.98 353.458 164.265 352.756 164.835 352.183C165.405 351.611 166.104 351.325 166.933 351.325C167.761 351.325 168.447 351.611 168.991 352.183C169.561 352.756 169.846 353.458 169.846 354.291C169.846 355.123 169.561 355.826 168.991 356.398C168.447 356.945 167.761 357.218 166.933 357.218ZM156.14 336.365H160.853V357.423H156.14V354.388C155.412 355.617 154.452 356.527 153.257 357.116C152.063 357.705 150.764 358 149.362 358H149.323C148.102 358 146.96 357.795 145.895 357.385C144.83 356.975 143.895 356.373 143.09 355.579C142.285 354.759 141.649 353.76 141.182 352.581C140.74 351.377 140.52 349.981 140.52 348.393V345.395C140.52 343.807 140.74 342.411 141.182 341.207C141.649 340.003 142.285 338.991 143.09 338.171C143.895 337.351 144.83 336.736 145.895 336.326C146.96 335.916 148.102 335.711 149.323 335.711H149.362C150.764 335.711 152.063 335.993 153.257 336.557C154.452 337.095 155.412 337.94 156.14 339.093V336.365ZM150.608 354.119C151.309 354.119 151.985 353.991 152.634 353.734C153.309 353.453 153.906 353.043 154.426 352.505C154.945 351.941 155.361 351.249 155.672 350.43C155.984 349.61 156.14 348.649 156.14 347.547V346.241C156.14 345.139 155.984 344.178 155.672 343.359C155.361 342.513 154.945 341.822 154.426 341.284C153.906 340.72 153.309 340.31 152.634 340.054C151.985 339.772 151.309 339.631 150.608 339.631H150.53C149.803 339.631 149.115 339.759 148.466 340.015C147.817 340.246 147.245 340.63 146.752 341.168C146.285 341.681 145.908 342.334 145.622 343.128C145.363 343.922 145.233 344.857 145.233 345.933V347.855C145.233 348.931 145.363 349.866 145.622 350.66C145.908 351.429 146.285 352.082 146.752 352.62C147.245 353.132 147.817 353.517 148.466 353.773C149.115 354.003 149.803 354.119 150.53 354.119H150.608ZM130.838 335.711C131.957 335.711 133.011 335.905 133.999 336.293C134.988 336.655 135.847 337.197 136.575 337.921C137.304 338.644 137.876 339.548 138.292 340.634C138.734 341.719 138.956 342.972 138.956 344.393V357.609H134.273V345.013C134.273 343.179 133.817 341.835 132.907 340.982C131.996 340.104 130.851 339.665 129.473 339.665H129.434C128.757 339.665 128.094 339.794 127.443 340.052C126.819 340.285 126.26 340.659 125.765 341.176C125.271 341.693 124.868 342.365 124.556 343.191C124.269 343.992 124.126 344.948 124.126 346.059V357.609H119.404V336.37H124.126V339.083C124.881 337.921 125.843 337.068 127.014 336.525C128.211 335.983 129.473 335.711 130.799 335.711H130.838Z" stroke="#C9644D" stroke-width="1.5"/>
</svg>
