<svg width="321" height="486" viewBox="0 0 321 486" fill="none" xmlns="http://www.w3.org/2000/svg">
<path d="M36.5 473.5V405.5H79V473.5M36.5 473.5L43 469.5M36.5 473.5H79M43 469.5V411H47.5H50H55M43 469.5H47.5H50H55M72.5 469.5L79 473.5M72.5 469.5V411H58M72.5 469.5H58M58 411V469.5M58 411H55M58 469.5H55M55 469.5V411M37.5 342H79M37.5 342L40 344.5M37.5 342V370M37.5 387.5H79M37.5 387.5L40 385.5M37.5 387.5V370M79 387.5L77 385.5M79 387.5V370M79 342L77 344.5M79 342V370M40 344.5V385.5M40 344.5H58M40 385.5H43M77 385.5V344.5M77 385.5H74M77 344.5H58M37.5 370H45.5M79 370H74M43 370.5V385.5M43 385.5H45.5M45.5 370V385.5M45.5 370H48.5M45.5 385.5H48.5M48.5 385.5V370M48.5 385.5H51.5M48.5 370H51.5M51.5 385.5V370M51.5 385.5H54M51.5 370H54M54 370V385.5M54 370H56.5M54 385.5H56.5M56.5 370V385.5M56.5 370H59.5M56.5 385.5H58M59.5 370V385.5M59.5 370H62.5M59.5 385.5H62.5M59.5 385.5H58M62.5 370V385.5M62.5 370H65.5M62.5 385.5H65.5M65.5 370V385.5M65.5 370H68M65.5 385.5H68M68 370V385.5M68 370H71M68 385.5H71M71 370V385.5M71 370H74M71 385.5H74M74 370V385.5M58 344.5V385.5M101 476H213M101 476L99.5 477.5M101 476V472.5M213 476V477.5M213 476V472.5M94 484L96.75 482.5M99.5 481L96.75 482.5M99.5 481V477.5M99.5 481H213M215 485H320V1H3.5H1V485H120H200.5H215ZM215 485V483L214.75 482.5M96.75 482.5H214.75M214.75 482.5L214 481H213M99.5 477.5H213M213 477.5V481M101 472.5H213M101 472.5L103.843 470M101 472.5V418M213 472.5L209 470M213 472.5V418M209 470V405.5M209 470H200.5M103.843 470H114M103.843 470V405.5M101 418V405.5H103.843M101 418H114M213 418V405.5H209M213 418H200.5M185.5 405.5V470M185.5 405.5H128.5M185.5 405.5H209M185.5 470H200.5M185.5 470H161M128.5 405.5V470M128.5 405.5H103.843M128.5 470H114M128.5 470H156M158.5 418V470M158.5 418H156M158.5 418H161M158.5 470H156M158.5 470H161M114 418V470M114 418H156M200.5 418V470M200.5 418H161M156 418V470M161 470V418M103.5 387.5H145M103.5 387.5L106 385.5M103.5 387.5V370M145 387.5L143 385.5M145 387.5V370M145 342H103.5M145 342L143 344.5M145 342V370M103.5 342L106 344.5M103.5 342V370M106 344.5V370M106 344.5H124M106 370V385.5M106 370H103.5M106 370H111.5M106 385.5H109M143 385.5V370M143 385.5H140M143 370V344.5M143 370H140M143 370H145M143 344.5H124M109 385.5V370.5M109 385.5H111.5M111.5 370V385.5M111.5 370H114.5M111.5 385.5H114.5M114.5 385.5V370M114.5 385.5H117.5M114.5 370H117.5M117.5 385.5V370M117.5 385.5H120M117.5 370H120M120 370V385.5M120 370H122.5M120 385.5H122.5M122.5 370V385.5M122.5 370H124M122.5 385.5H124M124 370H125.5M124 370V344.5M124 370V385.5M125.5 370V385.5M125.5 370H128.5M125.5 385.5H128.5M125.5 385.5H124M128.5 370V385.5M128.5 370H131.5M128.5 385.5H131.5M131.5 370V385.5M131.5 370H134M131.5 385.5H134M134 370V385.5M134 370H137M134 385.5H137M137 370V385.5M137 370H140M137 385.5H140M140 370V385.5M173.5 387.5H215M173.5 387.5L176 385.5M173.5 387.5V370M215 387.5L213 385.5M215 387.5V370M215 342H173.5M215 342L213 344.5M215 342V370M173.5 342L176 344.5M173.5 342V370M176 344.5V370M176 344.5H194M176 370V385.5M176 370H173.5M176 370H181.5M176 385.5H179M213 385.5V370M213 385.5H210M213 370V344.5M213 370H210M213 370H215M213 344.5H194M179 385.5V370.5M179 385.5H181.5M181.5 370V385.5M181.5 370H184.5M181.5 385.5H184.5M184.5 385.5V370M184.5 385.5H187.5M184.5 370H187.5M187.5 385.5V370M187.5 385.5H190M187.5 370H190M190 370V385.5M190 370H192.5M190 385.5H192.5M192.5 370V385.5M192.5 370H194M192.5 385.5H194M194 370H195.5M194 370V344.5M194 370V385.5M195.5 370V385.5M195.5 370H198.5M195.5 385.5H198.5M195.5 385.5H194M198.5 370V385.5M198.5 370H201.5M198.5 385.5H201.5M201.5 370V385.5M201.5 370H204M201.5 385.5H204M204 370V385.5M204 370H207M204 385.5H207M207 370V385.5M207 370H210M207 385.5H210M210 370V385.5M243.5 387.5H285M243.5 387.5L246 385.5M243.5 387.5V370M285 387.5L283 385.5M285 387.5V370M285 342H243.5M285 342L283 344.5M285 342V370M243.5 342L246 344.5M243.5 342V370M246 344.5V370M246 344.5H264M246 370V385.5M246 370H243.5M246 370H251.5M246 385.5H249M283 385.5V370M283 385.5H280M283 370V344.5M283 370H280M283 370H285M283 344.5H264M249 385.5V370.5M249 385.5H251.5M251.5 370V385.5M251.5 370H254.5M251.5 385.5H254.5M254.5 385.5V370M254.5 385.5H257.5M254.5 370H257.5M257.5 385.5V370M257.5 385.5H260M257.5 370H260M260 370V385.5M260 370H262.5M260 385.5H262.5M262.5 370V385.5M262.5 370H264M262.5 385.5H264M264 370H265.5M264 370V344.5M264 370V385.5M265.5 370V385.5M265.5 370H268.5M265.5 385.5H268.5M265.5 385.5H264M268.5 370V385.5M268.5 370H271.5M268.5 385.5H271.5M271.5 370V385.5M271.5 370H274M271.5 385.5H274M274 370V385.5M274 370H277M274 385.5H277M277 370V385.5M277 370H280M277 385.5H280M280 370V385.5M37.5 282H79M37.5 282L40 284.5M37.5 282V310M37.5 327.5H79M37.5 327.5L40 325.5M37.5 327.5V310M79 327.5L77 325.5M79 327.5V310M79 282L77 284.5M79 282V310M40 284.5V325.5M40 284.5H58M40 325.5H43M77 325.5V284.5M77 325.5H74M77 284.5H58M37.5 310H45.5M79 310H74M43 310.5V325.5M43 325.5H45.5M45.5 310V325.5M45.5 310H48.5M45.5 325.5H48.5M48.5 325.5V310M48.5 325.5H51.5M48.5 310H51.5M51.5 325.5V310M51.5 325.5H54M51.5 310H54M54 310V325.5M54 310H56.5M54 325.5H56.5M56.5 310V325.5M56.5 310H59.5M56.5 325.5H58M59.5 310V325.5M59.5 310H62.5M59.5 325.5H62.5M59.5 325.5H58M62.5 310V325.5M62.5 310H65.5M62.5 325.5H65.5M65.5 310V325.5M65.5 310H68M65.5 325.5H68M68 310V325.5M68 310H71M68 325.5H71M71 310V325.5M71 310H74M71 325.5H74M74 310V325.5M58 284.5V325.5M103.5 327.5H145M103.5 327.5L106 325.5M103.5 327.5V310M145 327.5L143 325.5M145 327.5V310M145 282H103.5M145 282L143 284.5M145 282V310M103.5 282L106 284.5M103.5 282V310M106 284.5V310M106 284.5H124M106 310V325.5M106 310H103.5M106 310H111.5M106 325.5H109M143 325.5V310M143 325.5H140M143 310V284.5M143 310H140M143 310H145M143 284.5H124M109 325.5V310.5M109 325.5H111.5M111.5 310V325.5M111.5 310H114.5M111.5 325.5H114.5M114.5 325.5V310M114.5 325.5H117.5M114.5 310H117.5M117.5 325.5V310M117.5 325.5H120M117.5 310H120M120 310V325.5M120 310H122.5M120 325.5H122.5M122.5 310V325.5M122.5 310H124M122.5 325.5H124M124 310H125.5M124 310V284.5M124 310V325.5M125.5 310V325.5M125.5 310H128.5M125.5 325.5H128.5M125.5 325.5H124M128.5 310V325.5M128.5 310H131.5M128.5 325.5H131.5M131.5 310V325.5M131.5 310H134M131.5 325.5H134M134 310V325.5M134 310H137M134 325.5H137M137 310V325.5M137 310H140M137 325.5H140M140 310V325.5M173.5 327.5H215M173.5 327.5L176 325.5M173.5 327.5V310M215 327.5L213 325.5M215 327.5V310M215 282H173.5M215 282L213 284.5M215 282V310M173.5 282L176 284.5M173.5 282V310M176 284.5V310M176 284.5H194M176 310V325.5M176 310H173.5M176 310H181.5M176 325.5H179M213 325.5V310M213 325.5H210M213 310V284.5M213 310H210M213 310H215M213 284.5H194M179 325.5V310.5M179 325.5H181.5M181.5 310V325.5M181.5 310H184.5M181.5 325.5H184.5M184.5 325.5V310M184.5 325.5H187.5M184.5 310H187.5M187.5 325.5V310M187.5 325.5H190M187.5 310H190M190 310V325.5M190 310H192.5M190 325.5H192.5M192.5 310V325.5M192.5 310H194M192.5 325.5H194M194 310H195.5M194 310V284.5M194 310V325.5M195.5 310V325.5M195.5 310H198.5M195.5 325.5H198.5M195.5 325.5H194M198.5 310V325.5M198.5 310H201.5M198.5 325.5H201.5M201.5 310V325.5M201.5 310H204M201.5 325.5H204M204 310V325.5M204 310H207M204 325.5H207M207 310V325.5M207 310H210M207 325.5H210M210 310V325.5M243.5 327.5H285M243.5 327.5L246 325.5M243.5 327.5V310M285 327.5L283 325.5M285 327.5V310M285 282H243.5M285 282L283 284.5M285 282V310M243.5 282L246 284.5M243.5 282V310M246 284.5V310M246 284.5H264M246 310V325.5M246 310H243.5M246 310H251.5M246 325.5H249M283 325.5V310M283 325.5H280M283 310V284.5M283 310H280M283 310H285M283 284.5H264M249 325.5V310.5M249 325.5H251.5M251.5 310V325.5M251.5 310H254.5M251.5 325.5H254.5M254.5 325.5V310M254.5 325.5H257.5M254.5 310H257.5M257.5 325.5V310M257.5 325.5H260M257.5 310H260M260 310V325.5M260 310H262.5M260 325.5H262.5M262.5 310V325.5M262.5 310H264M262.5 325.5H264M264 310H265.5M264 310V284.5M264 310V325.5M265.5 310V325.5M265.5 310H268.5M265.5 325.5H268.5M265.5 325.5H264M268.5 310V325.5M268.5 310H271.5M268.5 325.5H271.5M271.5 310V325.5M271.5 310H274M271.5 325.5H274M274 310V325.5M274 310H277M274 325.5H277M277 310V325.5M277 310H280M277 325.5H280M280 310V325.5M37.5 222H79M37.5 222L40 224.5M37.5 222V250M37.5 267.5H79M37.5 267.5L40 265.5M37.5 267.5V250M79 267.5L77 265.5M79 267.5V250M79 222L77 224.5M79 222V250M40 224.5V265.5M40 224.5H58M40 265.5H43M77 265.5V224.5M77 265.5H74M77 224.5H58M37.5 250H45.5M79 250H74M43 250.5V265.5M43 265.5H45.5M45.5 250V265.5M45.5 250H48.5M45.5 265.5H48.5M48.5 265.5V250M48.5 265.5H51.5M48.5 250H51.5M51.5 265.5V250M51.5 265.5H54M51.5 250H54M54 250V265.5M54 250H56.5M54 265.5H56.5M56.5 250V265.5M56.5 250H59.5M56.5 265.5H58M59.5 250V265.5M59.5 250H62.5M59.5 265.5H62.5M59.5 265.5H58M62.5 250V265.5M62.5 250H65.5M62.5 265.5H65.5M65.5 250V265.5M65.5 250H68M65.5 265.5H68M68 250V265.5M68 250H71M68 265.5H71M71 250V265.5M71 250H74M71 265.5H74M74 250V265.5M58 224.5V265.5M103.5 267.5H145M103.5 267.5L106 265.5M103.5 267.5V250M145 267.5L143 265.5M145 267.5V250M145 222H103.5M145 222L143 224.5M145 222V250M103.5 222L106 224.5M103.5 222V250M106 224.5V250M106 224.5H124M106 250V265.5M106 250H103.5M106 250H111.5M106 265.5H109M143 265.5V250M143 265.5H140M143 250V224.5M143 250H140M143 250H145M143 224.5H124M109 265.5V250.5M109 265.5H111.5M111.5 250V265.5M111.5 250H114.5M111.5 265.5H114.5M114.5 265.5V250M114.5 265.5H117.5M114.5 250H117.5M117.5 265.5V250M117.5 265.5H120M117.5 250H120M120 250V265.5M120 250H122.5M120 265.5H122.5M122.5 250V265.5M122.5 250H124M122.5 265.5H124M124 250H125.5M124 250V224.5M124 250V265.5M125.5 250V265.5M125.5 250H128.5M125.5 265.5H128.5M125.5 265.5H124M128.5 250V265.5M128.5 250H131.5M128.5 265.5H131.5M131.5 250V265.5M131.5 250H134M131.5 265.5H134M134 250V265.5M134 250H137M134 265.5H137M137 250V265.5M137 250H140M137 265.5H140M140 250V265.5M173.5 267.5H215M173.5 267.5L176 265.5M173.5 267.5V250M215 267.5L213 265.5M215 267.5V250M215 222H173.5M215 222L213 224.5M215 222V250M173.5 222L176 224.5M173.5 222V250M176 224.5V250M176 224.5H194M176 250V265.5M176 250H173.5M176 250H181.5M176 265.5H179M213 265.5V250M213 265.5H210M213 250V224.5M213 250H210M213 250H215M213 224.5H194M179 265.5V250.5M179 265.5H181.5M181.5 250V265.5M181.5 250H184.5M181.5 265.5H184.5M184.5 265.5V250M184.5 265.5H187.5M184.5 250H187.5M187.5 265.5V250M187.5 265.5H190M187.5 250H190M190 250V265.5M190 250H192.5M190 265.5H192.5M192.5 250V265.5M192.5 250H194M192.5 265.5H194M194 250H195.5M194 250V224.5M194 250V265.5M195.5 250V265.5M195.5 250H198.5M195.5 265.5H198.5M195.5 265.5H194M198.5 250V265.5M198.5 250H201.5M198.5 265.5H201.5M201.5 250V265.5M201.5 250H204M201.5 265.5H204M204 250V265.5M204 250H207M204 265.5H207M207 250V265.5M207 250H210M207 265.5H210M210 250V265.5M243.5 267.5H285M243.5 267.5L246 265.5M243.5 267.5V250M285 267.5L283 265.5M285 267.5V250M285 222H243.5M285 222L283 224.5M285 222V250M243.5 222L246 224.5M243.5 222V250M246 224.5V250M246 224.5H264M246 250V265.5M246 250H243.5M246 250H251.5M246 265.5H249M283 265.5V250M283 265.5H280M283 250V224.5M283 250H280M283 250H285M283 224.5H264M249 265.5V250.5M249 265.5H251.5M251.5 250V265.5M251.5 250H254.5M251.5 265.5H254.5M254.5 265.5V250M254.5 265.5H257.5M254.5 250H257.5M257.5 265.5V250M257.5 265.5H260M257.5 250H260M260 250V265.5M260 250H262.5M260 265.5H262.5M262.5 250V265.5M262.5 250H264M262.5 265.5H264M264 250H265.5M264 250V224.5M264 250V265.5M265.5 250V265.5M265.5 250H268.5M265.5 265.5H268.5M265.5 265.5H264M268.5 250V265.5M268.5 250H271.5M268.5 265.5H271.5M271.5 250V265.5M271.5 250H274M271.5 265.5H274M274 250V265.5M274 250H277M274 265.5H277M277 250V265.5M277 250H280M277 265.5H280M280 250V265.5M37.5 162H79M37.5 162L40 164.5M37.5 162V190M37.5 207.5H79M37.5 207.5L40 205.5M37.5 207.5V190M79 207.5L77 205.5M79 207.5V190M79 162L77 164.5M79 162V190M40 164.5V205.5M40 164.5H58M40 205.5H43M77 205.5V164.5M77 205.5H74M77 164.5H58M37.5 190H45.5M79 190H74M43 190.5V205.5M43 205.5H45.5M45.5 190V205.5M45.5 190H48.5M45.5 205.5H48.5M48.5 205.5V190M48.5 205.5H51.5M48.5 190H51.5M51.5 205.5V190M51.5 205.5H54M51.5 190H54M54 190V205.5M54 190H56.5M54 205.5H56.5M56.5 190V205.5M56.5 190H59.5M56.5 205.5H58M59.5 190V205.5M59.5 190H62.5M59.5 205.5H62.5M59.5 205.5H58M62.5 190V205.5M62.5 190H65.5M62.5 205.5H65.5M65.5 190V205.5M65.5 190H68M65.5 205.5H68M68 190V205.5M68 190H71M68 205.5H71M71 190V205.5M71 190H74M71 205.5H74M74 190V205.5M58 164.5V205.5M103.5 207.5H145M103.5 207.5L106 205.5M103.5 207.5V190M145 207.5L143 205.5M145 207.5V190M145 162H103.5M145 162L143 164.5M145 162V190M103.5 162L106 164.5M103.5 162V190M106 164.5V190M106 164.5H124M106 190V205.5M106 190H103.5M106 190H111.5M106 205.5H109M143 205.5V190M143 205.5H140M143 190V164.5M143 190H140M143 190H145M143 164.5H124M109 205.5V190.5M109 205.5H111.5M111.5 190V205.5M111.5 190H114.5M111.5 205.5H114.5M114.5 205.5V190M114.5 205.5H117.5M114.5 190H117.5M117.5 205.5V190M117.5 205.5H120M117.5 190H120M120 190V205.5M120 190H122.5M120 205.5H122.5M122.5 190V205.5M122.5 190H124M122.5 205.5H124M124 190H125.5M124 190V164.5M124 190V205.5M125.5 190V205.5M125.5 190H128.5M125.5 205.5H128.5M125.5 205.5H124M128.5 190V205.5M128.5 190H131.5M128.5 205.5H131.5M131.5 190V205.5M131.5 190H134M131.5 205.5H134M134 190V205.5M134 190H137M134 205.5H137M137 190V205.5M137 190H140M137 205.5H140M140 190V205.5M173.5 207.5H215M173.5 207.5L176 205.5M173.5 207.5V190M215 207.5L213 205.5M215 207.5V190M215 162H173.5M215 162L213 164.5M215 162V190M173.5 162L176 164.5M173.5 162V190M176 164.5V190M176 164.5H194M176 190V205.5M176 190H173.5M176 190H181.5M176 205.5H179M213 205.5V190M213 205.5H210M213 190V164.5M213 190H210M213 190H215M213 164.5H194M179 205.5V190.5M179 205.5H181.5M181.5 190V205.5M181.5 190H184.5M181.5 205.5H184.5M184.5 205.5V190M184.5 205.5H187.5M184.5 190H187.5M187.5 205.5V190M187.5 205.5H190M187.5 190H190M190 190V205.5M190 190H192.5M190 205.5H192.5M192.5 190V205.5M192.5 190H194M192.5 205.5H194M194 190H195.5M194 190V164.5M194 190V205.5M195.5 190V205.5M195.5 190H198.5M195.5 205.5H198.5M195.5 205.5H194M198.5 190V205.5M198.5 190H201.5M198.5 205.5H201.5M201.5 190V205.5M201.5 190H204M201.5 205.5H204M204 190V205.5M204 190H207M204 205.5H207M207 190V205.5M207 190H210M207 205.5H210M210 190V205.5M243.5 207.5H285M243.5 207.5L246 205.5M243.5 207.5V190M285 207.5L283 205.5M285 207.5V190M285 162H243.5M285 162L283 164.5M285 162V190M243.5 162L246 164.5M243.5 162V190M246 164.5V190M246 164.5H264M246 190V205.5M246 190H243.5M246 190H251.5M246 205.5H249M283 205.5V190M283 205.5H280M283 190V164.5M283 190H280M283 190H285M283 164.5H264M249 205.5V190.5M249 205.5H251.5M251.5 190V205.5M251.5 190H254.5M251.5 205.5H254.5M254.5 205.5V190M254.5 205.5H257.5M254.5 190H257.5M257.5 205.5V190M257.5 205.5H260M257.5 190H260M260 190V205.5M260 190H262.5M260 205.5H262.5M262.5 190V205.5M262.5 190H264M262.5 205.5H264M264 190H265.5M264 190V164.5M264 190V205.5M265.5 190V205.5M265.5 190H268.5M265.5 205.5H268.5M265.5 205.5H264M268.5 190V205.5M268.5 190H271.5M268.5 205.5H271.5M271.5 190V205.5M271.5 190H274M271.5 205.5H274M274 190V205.5M274 190H277M274 205.5H277M277 190V205.5M277 190H280M277 205.5H280M280 190V205.5M37.5 102H79M37.5 102L40 104.5M37.5 102V130M37.5 147.5H79M37.5 147.5L40 145.5M37.5 147.5V130M79 147.5L77 145.5M79 147.5V130M79 102L77 104.5M79 102V130M40 104.5V145.5M40 104.5H58M40 145.5H43M77 145.5V104.5M77 145.5H74M77 104.5H58M37.5 130H45.5M79 130H74M43 130.5V145.5M43 145.5H45.5M45.5 130V145.5M45.5 130H48.5M45.5 145.5H48.5M48.5 145.5V130M48.5 145.5H51.5M48.5 130H51.5M51.5 145.5V130M51.5 145.5H54M51.5 130H54M54 130V145.5M54 130H56.5M54 145.5H56.5M56.5 130V145.5M56.5 130H59.5M56.5 145.5H58M59.5 130V145.5M59.5 130H62.5M59.5 145.5H62.5M59.5 145.5H58M62.5 130V145.5M62.5 130H65.5M62.5 145.5H65.5M65.5 130V145.5M65.5 130H68M65.5 145.5H68M68 130V145.5M68 130H71M68 145.5H71M71 130V145.5M71 130H74M71 145.5H74M74 130V145.5M58 104.5V145.5M103.5 147.5H145M103.5 147.5L106 145.5M103.5 147.5V130M145 147.5L143 145.5M145 147.5V130M145 102H103.5M145 102L143 104.5M145 102V130M103.5 102L106 104.5M103.5 102V130M106 104.5V130M106 104.5H124M106 130V145.5M106 130H103.5M106 130H111.5M106 145.5H109M143 145.5V130M143 145.5H140M143 130V104.5M143 130H140M143 130H145M143 104.5H124M109 145.5V130.5M109 145.5H111.5M111.5 130V145.5M111.5 130H114.5M111.5 145.5H114.5M114.5 145.5V130M114.5 145.5H117.5M114.5 130H117.5M117.5 145.5V130M117.5 145.5H120M117.5 130H120M120 130V145.5M120 130H122.5M120 145.5H122.5M122.5 130V145.5M122.5 130H124M122.5 145.5H124M124 130H125.5M124 130V104.5M124 130V145.5M125.5 130V145.5M125.5 130H128.5M125.5 145.5H128.5M125.5 145.5H124M128.5 130V145.5M128.5 130H131.5M128.5 145.5H131.5M131.5 130V145.5M131.5 130H134M131.5 145.5H134M134 130V145.5M134 130H137M134 145.5H137M137 130V145.5M137 130H140M137 145.5H140M140 130V145.5M173.5 147.5H215M173.5 147.5L176 145.5M173.5 147.5V130M215 147.5L213 145.5M215 147.5V130M215 102H173.5M215 102L213 104.5M215 102V130M173.5 102L176 104.5M173.5 102V130M176 104.5V130M176 104.5H194M176 130V145.5M176 130H173.5M176 130H181.5M176 145.5H179M213 145.5V130M213 145.5H210M213 130V104.5M213 130H210M213 130H215M213 104.5H194M179 145.5V130.5M179 145.5H181.5M181.5 130V145.5M181.5 130H184.5M181.5 145.5H184.5M184.5 145.5V130M184.5 145.5H187.5M184.5 130H187.5M187.5 145.5V130M187.5 145.5H190M187.5 130H190M190 130V145.5M190 130H192.5M190 145.5H192.5M192.5 130V145.5M192.5 130H194M192.5 145.5H194M194 130H195.5M194 130V104.5M194 130V145.5M195.5 130V145.5M195.5 130H198.5M195.5 145.5H198.5M195.5 145.5H194M198.5 130V145.5M198.5 130H201.5M198.5 145.5H201.5M201.5 130V145.5M201.5 130H204M201.5 145.5H204M204 130V145.5M204 130H207M204 145.5H207M207 130V145.5M207 130H210M207 145.5H210M210 130V145.5M243.5 147.5H285M243.5 147.5L246 145.5M243.5 147.5V130M285 147.5L283 145.5M285 147.5V130M285 102H243.5M285 102L283 104.5M285 102V130M243.5 102L246 104.5M243.5 102V130M246 104.5V130M246 104.5H264M246 130V145.5M246 130H243.5M246 130H251.5M246 145.5H249M283 145.5V130M283 145.5H280M283 130V104.5M283 130H280M283 130H285M283 104.5H264M249 145.5V130.5M249 145.5H251.5M251.5 130V145.5M251.5 130H254.5M251.5 145.5H254.5M254.5 145.5V130M254.5 145.5H257.5M254.5 130H257.5M257.5 145.5V130M257.5 145.5H260M257.5 130H260M260 130V145.5M260 130H262.5M260 145.5H262.5M262.5 130V145.5M262.5 130H264M262.5 145.5H264M264 130H265.5M264 130V104.5M264 130V145.5M265.5 130V145.5M265.5 130H268.5M265.5 145.5H268.5M265.5 145.5H264M268.5 130V145.5M268.5 130H271.5M268.5 145.5H271.5M271.5 130V145.5M271.5 130H274M271.5 145.5H274M274 130V145.5M274 130H277M274 145.5H277M277 130V145.5M277 130H280M277 145.5H280M280 130V145.5M37.5 42H79M37.5 42L40 44.5M37.5 42V70M37.5 87.5H79M37.5 87.5L40 85.5M37.5 87.5V70M79 87.5L77 85.5M79 87.5V70M79 42L77 44.5M79 42V70M40 44.5V85.5M40 44.5H58M40 85.5H43M77 85.5V44.5M77 85.5H74M77 44.5H58M37.5 70H45.5M79 70H74M43 70.5V85.5M43 85.5H45.5M45.5 70V85.5M45.5 70H48.5M45.5 85.5H48.5M48.5 85.5V70M48.5 85.5H51.5M48.5 70H51.5M51.5 85.5V70M51.5 85.5H54M51.5 70H54M54 70V85.5M54 70H56.5M54 85.5H56.5M56.5 70V85.5M56.5 70H59.5M56.5 85.5H58M59.5 70V85.5M59.5 70H62.5M59.5 85.5H62.5M59.5 85.5H58M62.5 70V85.5M62.5 70H65.5M62.5 85.5H65.5M65.5 70V85.5M65.5 70H68M65.5 85.5H68M68 70V85.5M68 70H71M68 85.5H71M71 70V85.5M71 70H74M71 85.5H74M74 70V85.5M58 44.5V85.5M103.5 87.5H145M103.5 87.5L106 85.5M103.5 87.5V70M145 87.5L143 85.5M145 87.5V70M145 42H103.5M145 42L143 44.5M145 42V70M103.5 42L106 44.5M103.5 42V70M106 44.5V70M106 44.5H124M106 70V85.5M106 70H103.5M106 70H111.5M106 85.5H109M143 85.5V70M143 85.5H140M143 70V44.5M143 70H140M143 70H145M143 44.5H124M109 85.5V70.5M109 85.5H111.5M111.5 70V85.5M111.5 70H114.5M111.5 85.5H114.5M114.5 85.5V70M114.5 85.5H117.5M114.5 70H117.5M117.5 85.5V70M117.5 85.5H120M117.5 70H120M120 70V85.5M120 70H122.5M120 85.5H122.5M122.5 70V85.5M122.5 70H124M122.5 85.5H124M124 70H125.5M124 70V44.5M124 70V85.5M125.5 70V85.5M125.5 70H128.5M125.5 85.5H128.5M125.5 85.5H124M128.5 70V85.5M128.5 70H131.5M128.5 85.5H131.5M131.5 70V85.5M131.5 70H134M131.5 85.5H134M134 70V85.5M134 70H137M134 85.5H137M137 70V85.5M137 70H140M137 85.5H140M140 70V85.5M173.5 87.5H215M173.5 87.5L176 85.5M173.5 87.5V70M215 87.5L213 85.5M215 87.5V70M215 42H173.5M215 42L213 44.5M215 42V70M173.5 42L176 44.5M173.5 42V70M176 44.5V70M176 44.5H194M176 70V85.5M176 70H173.5M176 70H181.5M176 85.5H179M213 85.5V70M213 85.5H210M213 70V44.5M213 70H210M213 70H215M213 44.5H194M179 85.5V70.5M179 85.5H181.5M181.5 70V85.5M181.5 70H184.5M181.5 85.5H184.5M184.5 85.5V70M184.5 85.5H187.5M184.5 70H187.5M187.5 85.5V70M187.5 85.5H190M187.5 70H190M190 70V85.5M190 70H192.5M190 85.5H192.5M192.5 70V85.5M192.5 70H194M192.5 85.5H194M194 70H195.5M194 70V44.5M194 70V85.5M195.5 70V85.5M195.5 70H198.5M195.5 85.5H198.5M195.5 85.5H194M198.5 70V85.5M198.5 70H201.5M198.5 85.5H201.5M201.5 70V85.5M201.5 70H204M201.5 85.5H204M204 70V85.5M204 70H207M204 85.5H207M207 70V85.5M207 70H210M207 85.5H210M210 70V85.5M243.5 87.5H285M243.5 87.5L246 85.5M243.5 87.5V70M285 87.5L283 85.5M285 87.5V70M285 42H243.5M285 42L283 44.5M285 42V70M243.5 42L246 44.5M243.5 42V70M246 44.5V70M246 44.5H264M246 70V85.5M246 70H243.5M246 70H251.5M246 85.5H249M283 85.5V70M283 85.5H280M283 70V44.5M283 70H280M283 70H285M283 44.5H264M249 85.5V70.5M249 85.5H251.5M251.5 70V85.5M251.5 70H254.5M251.5 85.5H254.5M254.5 85.5V70M254.5 85.5H257.5M254.5 70H257.5M257.5 85.5V70M257.5 85.5H260M257.5 70H260M260 70V85.5M260 70H262.5M260 85.5H262.5M262.5 70V85.5M262.5 70H264M262.5 85.5H264M264 70H265.5M264 70V44.5M264 70V85.5M265.5 70V85.5M265.5 70H268.5M265.5 85.5H268.5M265.5 85.5H264M268.5 70V85.5M268.5 70H271.5M268.5 85.5H271.5M271.5 70V85.5M271.5 70H274M271.5 85.5H274M274 70V85.5M274 70H277M274 85.5H277M277 70V85.5M277 70H280M277 85.5H280M280 70V85.5M279.135 7C279.135 7.81072 279.416 8.49475 279.978 9.05212C280.566 9.60949 281.256 9.88818 282.048 9.88818C282.84 9.88818 283.53 9.60949 284.118 9.05212C284.706 8.49475 285 7.81072 285 7M242.5 473.5V405.5H285V473.5M242.5 473.5L249 469.5M242.5 473.5H285M249 469.5V411H253.5H256H261M249 469.5H253.5H256H261M278.5 469.5L285 473.5M278.5 469.5V411H264M278.5 469.5H264M264 411V469.5M264 411H261M264 469.5H261M261 469.5V411M279.71 34.2588V13.0424H284.348V34.2588H279.71ZM273.286 13.1435H278.353L270.684 34.2589H264.341L256.847 13.1435H261.952L267.6 30.4057L273.286 13.1435ZM251.587 19.0759C250.758 19.0759 250.059 18.7896 249.489 18.2172C248.919 17.6448 248.635 16.9293 248.635 16.0706C248.635 15.264 248.919 14.5745 249.489 14.0021C250.059 13.4297 250.758 13.1435 251.587 13.1435C252.415 13.1435 253.102 13.4297 253.645 14.0021C254.215 14.5745 254.5 15.264 254.5 16.0706C254.5 16.9293 254.215 17.6448 253.645 18.2172C253.102 18.7896 252.415 19.0759 251.587 19.0759ZM251.587 33.8678C250.758 33.8678 250.059 33.5946 249.489 33.0482C248.919 32.4758 248.635 31.7733 248.635 30.9406C248.635 30.108 248.919 29.4055 249.489 28.8331C250.059 28.2607 250.758 27.9745 251.587 27.9745C252.415 27.9745 253.102 28.2607 253.645 28.8331C254.215 29.4055 254.5 30.108 254.5 30.9406C254.5 31.7733 254.215 32.4758 253.645 33.0482C253.102 33.5946 252.415 33.8678 251.587 33.8678ZM240.794 13.0145H245.507V34.0733H240.794V31.0374C240.067 32.2672 239.106 33.1766 237.911 33.7658C236.717 34.3551 235.418 34.6497 234.016 34.6497H233.977C232.756 34.6497 231.614 34.4448 230.549 34.0349C229.484 33.6249 228.55 33.0229 227.745 32.2287C226.94 31.4089 226.303 30.4098 225.836 29.2313C225.394 28.0272 225.174 26.631 225.174 25.0426V22.0452C225.174 20.4568 225.394 19.0606 225.836 17.8565C226.303 16.6524 226.94 15.6405 227.745 14.8206C228.55 14.0008 229.484 13.386 230.549 12.9761C231.614 12.5662 232.756 12.3612 233.977 12.3612H234.016C235.418 12.3612 236.717 12.643 237.911 13.2067C239.106 13.7447 240.067 14.5901 240.794 15.7429V13.0145ZM235.262 30.7684C235.964 30.7684 236.639 30.6403 237.288 30.3842C237.963 30.1023 238.56 29.6924 239.08 29.1544C239.599 28.5908 240.015 27.8991 240.326 27.0793C240.638 26.2595 240.794 25.2988 240.794 24.1972V22.8906C240.794 21.789 240.638 20.8283 240.326 20.0085C240.015 19.1631 239.599 18.4713 239.08 17.9333C238.56 17.3697 237.963 16.9598 237.288 16.7036C236.639 16.4218 235.964 16.2809 235.262 16.2809H235.185C234.457 16.2809 233.769 16.409 233.12 16.6652C232.471 16.8958 231.9 17.2801 231.406 17.8181C230.939 18.3304 230.562 18.9837 230.276 19.7779C230.017 20.5721 229.887 21.5072 229.887 22.5832V24.5046C229.887 25.5806 230.017 26.5157 230.276 27.3099C230.562 28.0784 230.939 28.7317 231.406 29.2697C231.9 29.7821 232.471 30.1664 233.12 30.4226C233.769 30.6531 234.457 30.7684 235.185 30.7684H235.262ZM215.493 12.3612C216.611 12.3612 217.665 12.555 218.654 12.9426C219.642 13.3043 220.501 13.8469 221.229 14.5704C221.958 15.2938 222.53 16.1981 222.946 17.2833C223.389 18.3685 223.61 19.6216 223.61 21.0427V34.2587H218.927V21.6628C218.927 19.8283 218.472 18.4848 217.561 17.6321C216.65 16.7536 215.506 16.3144 214.127 16.3144H214.088C213.411 16.3144 212.748 16.4436 212.097 16.702C211.473 16.9345 210.914 17.3091 210.419 17.8259C209.925 18.3427 209.522 19.0144 209.21 19.8412C208.924 20.6422 208.78 21.5982 208.78 22.7092V34.2587H204.058V13.0201H208.78V15.7331C209.535 14.5704 210.497 13.7177 211.668 13.1751C212.865 12.6325 214.127 12.3612 215.454 12.3612H215.493Z" stroke="#C9644D" stroke-width="1.5"/>
</svg>
