<svg width="88" height="88" viewBox="0 0 88 88" fill="none" xmlns="http://www.w3.org/2000/svg">
<path d="M31.7775 27.1946C28.6493 30.3225 26.7144 34.6437 26.7144 39.4168C26.7144 44.1149 28.5886 48.3753 31.6308 51.4908M56.2227 51.639C59.3508 48.5111 61.2858 44.1899 61.2858 39.4168C61.2858 34.6437 59.3508 30.3225 56.2227 27.1946" stroke="#2E2D28" stroke-width="2.75"/>
<path d="M26.221 21.0834C21.6709 25.7753 18.8569 32.2571 18.8569 39.4167C18.8569 46.464 21.5834 52.8545 26.0082 57.5278M61.7786 57.7501C66.3287 53.0582 69.1426 46.5763 69.1426 39.4167C69.1426 32.2571 66.3287 25.7753 61.7786 21.0834" stroke="#2E2D28" stroke-width="2.75"/>
<path d="M20.6655 16.5C14.6935 22.3649 11 30.4672 11 39.4167C11 48.2257 14.5787 56.214 20.386 62.0557M67.3345 62.3333C73.3065 56.4684 77 48.3662 77 39.4167C77 30.4672 73.3065 22.3649 67.3345 16.5" stroke="#2E2D28" stroke-width="2.75"/>
<path fill-rule="evenodd" clip-rule="evenodd" d="M44.0001 33.3054C42.2644 33.3054 40.693 33.9894 39.5555 35.0953C38.418 36.2012 37.7144 37.7289 37.7144 39.4165C37.7144 41.0776 38.3961 42.5839 39.5022 43.6854C40.6435 44.822 42.2372 45.5276 44.0001 45.5276C45.7357 45.5276 47.3071 44.8437 48.4446 43.7377C49.5822 42.6318 50.2858 41.1041 50.2858 39.4165C50.2858 37.7289 49.5822 36.2012 48.4446 35.0953C47.3071 33.9894 45.7357 33.3054 44.0001 33.3054Z" stroke="#2E2D28" stroke-width="2.75"/>
<path d="M44 71.5002V45.528" stroke="#2E2D28" stroke-width="2.75"/>
</svg>
