<svg width="108" height="42" viewBox="0 0 108 42" fill="none" xmlns="http://www.w3.org/2000/svg">
<path d="M104.031 8.3165C102.974 8.3165 102.054 7.94488 101.27 7.20165C100.52 6.45841 100.146 5.54626 100.146 4.46519C100.146 3.38412 100.52 2.48886 101.27 1.7794C102.054 1.03617 102.974 0.664551 104.031 0.664551C105.087 0.664551 106.007 1.03617 106.791 1.7794C107.575 2.48886 107.967 3.38412 107.967 4.46519C107.967 5.54626 107.575 6.45841 106.791 7.20165C106.007 7.94488 105.087 8.3165 104.031 8.3165ZM100.912 40.814V12.5225H107.098V40.814H100.912Z" fill="#E5C78D"/>
<path d="M92.3456 12.6572H99.1025L88.8766 40.8139H80.4176L70.4243 12.6572H77.2328L84.7634 35.6759L92.3456 12.6572Z" fill="#E5C78D"/>
<path d="M63.4112 20.5679C62.3062 20.5679 61.3738 20.1862 60.6141 19.4229C59.8545 18.6596 59.4746 17.7055 59.4746 16.5605C59.4746 15.4849 59.8545 14.5655 60.6141 13.8022C61.3738 13.0389 62.3062 12.6572 63.4112 12.6572C64.5162 12.6572 65.4312 13.0389 66.1564 13.8022C66.9161 14.5655 67.2959 15.4849 67.2959 16.5605C67.2959 17.7055 66.9161 18.6596 66.1564 19.4229C65.4312 20.1862 64.5162 20.5679 63.4112 20.5679ZM63.4112 40.2925C62.3062 40.2925 61.3738 39.9282 60.6141 39.1996C59.8545 38.4363 59.4746 37.4995 59.4746 36.3892C59.4746 35.279 59.8545 34.3422 60.6141 33.5789C61.3738 32.8156 62.3062 32.4339 63.4112 32.4339C64.5162 32.4339 65.4312 32.8156 66.1564 33.5789C66.9161 34.3422 67.2959 35.279 67.2959 36.3892C67.2959 37.4995 66.9161 38.4363 66.1564 39.1996C65.4312 39.9282 64.5162 40.2925 63.4112 40.2925Z" fill="#E5C78D"/>
<path d="M49.0183 12.4854H55.3033V40.5666H49.0183V36.5184C48.0487 38.1582 46.7675 39.3709 45.1746 40.1566C43.5817 40.9424 41.8503 41.3352 39.9804 41.3352H39.9284C38.3009 41.3352 36.7772 41.0619 35.3575 40.5154C33.9377 39.9688 32.6911 39.166 31.6176 38.1069C30.5442 37.0137 29.6958 35.6814 29.0725 34.11C28.4838 32.5044 28.1895 30.6425 28.1895 28.5245V24.5275C28.1895 22.4095 28.4838 20.5476 29.0725 18.942C29.6958 17.3364 30.5442 15.987 31.6176 14.8938C32.6911 13.8006 33.9377 12.9807 35.3575 12.4341C36.7772 11.8876 38.3009 11.6143 39.9284 11.6143H39.9804C41.8503 11.6143 43.5817 11.99 45.1746 12.7416C46.7675 13.459 48.0487 14.5864 49.0183 16.1236V12.4854ZM41.6425 36.1597C42.5775 36.1597 43.4778 35.9889 44.3435 35.6473C45.2438 35.2715 46.0403 34.7249 46.7329 34.0075C47.4254 33.2559 47.9795 32.3335 48.395 31.2404C48.8105 30.1472 49.0183 28.8661 49.0183 27.3971V25.6549C49.0183 24.1859 48.8105 22.9048 48.395 21.8116C47.9795 20.6843 47.4254 19.7619 46.7329 19.0445C46.0403 18.2929 45.2438 17.7463 44.3435 17.4047C43.4778 17.0289 42.5775 16.8411 41.6425 16.8411H41.5386C40.569 16.8411 39.6514 17.0119 38.7857 17.3535C37.92 17.6609 37.1582 18.1734 36.5002 18.8908C35.8769 19.574 35.3748 20.4451 34.9939 21.5042C34.6476 22.5632 34.4745 23.8101 34.4745 25.2449V27.8071C34.4745 29.2419 34.6476 30.4888 34.9939 31.5478C35.3748 32.5727 35.8769 33.4438 36.5002 34.1612C37.1582 34.8445 37.92 35.3569 38.7857 35.6985C39.6514 36.006 40.569 36.1597 41.5386 36.1597H41.6425Z" fill="#E5C78D"/>
<path d="M15.2798 11.6143C16.7716 11.6143 18.1766 11.8727 19.4949 12.3895C20.8132 12.8718 21.9581 13.5953 22.9294 14.5601C23.9008 15.5248 24.664 16.7306 25.2191 18.1777C25.8089 19.6248 26.1038 21.2958 26.1038 23.1907V40.8138H19.8592V24.0176C19.8592 21.5714 19.2521 19.7798 18.0379 18.6428C16.8236 17.4714 15.2972 16.8857 13.4585 16.8857H13.4065C12.5045 16.8857 11.6198 17.058 10.7525 17.4025C9.91993 17.7126 9.17406 18.2122 8.51491 18.9012C7.85576 19.5903 7.31804 20.4861 6.90173 21.5886C6.52012 22.6567 6.32931 23.9315 6.32931 25.413V40.8138H0.0327148V12.4928H6.32931V16.1105C7.33538 14.5601 8.61898 13.4231 10.1801 12.6996C11.776 11.976 13.4585 11.6143 15.2278 11.6143H15.2798Z" fill="#E5C78D"/>
</svg>
