<svg width="88" height="88" viewBox="0 0 88 88" fill="none" xmlns="http://www.w3.org/2000/svg">
<path d="M68.7145 65.8676L69.7443 66.7788L68.7145 65.8676ZM48.0186 76.7544L47.8512 75.3896L48.0186 76.7544ZM25.3048 71.1935L26.0837 70.0605L25.3048 71.1935ZM11.9787 51.9774L13.313 51.645L11.9787 51.9774ZM14.7322 28.7554L13.5127 28.1202L14.7322 28.7554ZM32.1826 13.1885L31.6902 11.9047V11.9047L32.1826 13.1885ZM55.567 13.0936L55.0851 14.3814V14.3814L55.567 13.0936ZM73.1431 28.5184L70.7184 12.8275L58.342 22.7728L73.1431 28.5184ZM77 44H75.625C75.625 51.7205 72.8008 59.1744 67.6847 64.9565L68.7145 65.8676L69.7443 66.7788C75.3052 60.4939 78.375 52.3919 78.375 44H77ZM68.7145 65.8676L67.6847 64.9565C62.5687 70.7386 55.5142 74.4495 47.8512 75.3896L48.0186 76.7544L48.186 78.1192C56.5155 77.0972 64.1834 73.0637 69.7443 66.7788L68.7145 65.8676ZM48.0186 76.7544L47.8512 75.3896C40.1881 76.3298 32.4458 74.4343 26.0837 70.0605L25.3048 71.1935L24.5258 72.3266C31.4411 77.0808 39.8566 79.1411 48.186 78.1192L48.0186 76.7544ZM25.3048 71.1935L26.0837 70.0605C19.7217 65.6866 15.1793 59.1366 13.313 51.645L11.9787 51.9774L10.6445 52.3098C12.6732 60.4528 17.6105 67.5724 24.5258 72.3266L25.3048 71.1935ZM11.9787 51.9774L13.313 51.645C11.4466 44.1535 12.3852 36.238 15.9517 29.3906L14.7322 28.7554L13.5127 28.1202C9.63605 35.563 8.61587 44.1668 10.6445 52.3098L11.9787 51.9774ZM14.7322 28.7554L15.9517 29.3906C19.5183 22.5433 25.4664 17.2371 32.6749 14.4723L32.1826 13.1885L31.6902 11.9047C23.8548 14.9099 17.3894 20.6774 13.5127 28.1202L14.7322 28.7554ZM32.1826 13.1885L32.6749 14.4723C39.8835 11.7076 47.8544 11.6752 55.0851 14.3814L55.567 13.0936L56.049 11.8059C48.1895 8.86437 39.5255 8.89953 31.6902 11.9047L32.1826 13.1885ZM55.567 13.0936L55.0851 14.3814C58.5497 15.6781 61.7296 17.5605 64.5008 19.9197L65.3921 18.8728L66.2835 17.8258C63.2714 15.2615 59.8148 13.2153 56.049 11.8059L55.567 13.0936Z" fill="#2E2D28"/>
<path d="M27.6144 54L27.5858 52.1094L34.6613 44.6615C37.1248 42.0547 38.2993 40.651 38.2993 38.7318C38.2993 36.612 36.4946 35.2083 34.1743 35.2083C31.7108 35.2083 30.1353 36.7839 30.1353 39.1042H27.7004C27.6717 35.4375 30.5076 32.974 34.2603 32.974C38.0129 32.974 40.7056 35.4948 40.7056 38.7318C40.7056 41.0521 39.617 42.8568 35.9504 46.638L31.1951 51.5365V51.7083H41.078V54H27.6144ZM43.1233 49.7604V47.6406L52.4618 33.2604H55.6415V47.4974H58.5347V49.7604H55.6415V54H53.178V49.7604H43.1233ZM45.9019 47.4974H53.178V36.526H52.9201L45.9019 47.3255V47.4974Z" fill="#2E2D28"/>
</svg>
